<?xml version="1.0" standalone="no"?>
<!DOCTYPE svg PUBLIC "-//W3C//DTD SVG 20010904//EN"
 "http://www.w3.org/TR/2001/REC-SVG-20010904/DTD/svg10.dtd">
<svg version="1.0" xmlns="http://www.w3.org/2000/svg"
 width="200.000000pt" height="200.000000pt" viewBox="0 0 200.000000 200.000000"
 preserveAspectRatio="xMidYMid meet">
<metadata>
Created by potrace 1.15, written by Peter Selinger 2001-2017
</metadata>
<g transform="translate(0.000000,200.000000) scale(0.100000,-0.100000)"
fill="#000000" stroke="none">
<path d="M135 1981 c-22 -10 -54 -34 -72 -52 -66 -70 -63 -24 -63 -931 0 -780
1 -825 19 -863 10 -22 34 -54 52 -72 70 -66 24 -63 929 -63 905 0 859 -3 929
63 18 18 42 50 52 72 18 38 19 83 19 863 0 907 3 861 -63 931 -18 18 -50 42
-72 52 -38 18 -82 19 -865 19 -783 0 -827 -1 -865 -19z m1145 -976 l0 -585
-505 0 -505 0 0 585 0 585 505 0 505 0 0 -585z m455 -535 l0 -55 -180 0 -180
0 -3 44 c-6 75 -13 72 185 69 l178 -3 0 -55z"/>
<path d="M382 1003 l3 -468 388 -3 387 -2 0 470 0 470 -390 0 -390 0 2 -467z
m396 142 c42 -18 82 -53 82 -71 0 -7 -16 -25 -35 -39 l-34 -27 -27 21 c-26 21
-84 28 -119 15 -31 -12 -49 -65 -49 -147 1 -91 20 -127 76 -141 31 -8 43 -5
81 17 l44 26 34 -35 c40 -41 35 -56 -31 -91 -32 -17 -60 -23 -106 -23 -74 0
-108 11 -148 48 -50 47 -66 96 -66 205 0 104 13 152 53 196 52 57 167 78 245
46z"/>
</g>
</svg>
